<svg aria-roledescription="flowchart-v2" role="graphics-document document" viewBox="0 0 1058.484375 727.7141723632812" style="max-width: 1058.48px; background-color: white;" class="flowchart" xmlns:xlink="http://www.w3.org/1999/xlink" xmlns="http://www.w3.org/2000/svg" width="100%" id="my-svg"><style>#my-svg{font-family:"trebuchet ms",verdana,arial,sans-serif;font-size:16px;fill:#333;}@keyframes edge-animation-frame{from{stroke-dashoffset:0;}}@keyframes dash{to{stroke-dashoffset:0;}}#my-svg .edge-animation-slow{stroke-dasharray:9,5!important;stroke-dashoffset:900;animation:dash 50s linear infinite;stroke-linecap:round;}#my-svg .edge-animation-fast{stroke-dasharray:9,5!important;stroke-dashoffset:900;animation:dash 20s linear infinite;stroke-linecap:round;}#my-svg .error-icon{fill:#552222;}#my-svg .error-text{fill:#552222;stroke:#552222;}#my-svg .edge-thickness-normal{stroke-width:1px;}#my-svg .edge-thickness-thick{stroke-width:3.5px;}#my-svg .edge-pattern-solid{stroke-dasharray:0;}#my-svg .edge-thickness-invisible{stroke-width:0;fill:none;}#my-svg .edge-pattern-dashed{stroke-dasharray:3;}#my-svg .edge-pattern-dotted{stroke-dasharray:2;}#my-svg .marker{fill:#333333;stroke:#333333;}#my-svg .marker.cross{stroke:#333333;}#my-svg svg{font-family:"trebuchet ms",verdana,arial,sans-serif;font-size:16px;}#my-svg p{margin:0;}#my-svg .label{font-family:"trebuchet ms",verdana,arial,sans-serif;color:#333;}#my-svg .cluster-label text{fill:#333;}#my-svg .cluster-label span{color:#333;}#my-svg .cluster-label span p{background-color:transparent;}#my-svg .label text,#my-svg span{fill:#333;color:#333;}#my-svg .node rect,#my-svg .node circle,#my-svg .node ellipse,#my-svg .node polygon,#my-svg .node path{fill:#ECECFF;stroke:#9370DB;stroke-width:1px;}#my-svg .rough-node .label text,#my-svg .node .label text,#my-svg .image-shape .label,#my-svg .icon-shape .label{text-anchor:middle;}#my-svg .node .katex path{fill:#000;stroke:#000;stroke-width:1px;}#my-svg .rough-node .label,#my-svg .node .label,#my-svg .image-shape .label,#my-svg .icon-shape .label{text-align:center;}#my-svg .node.clickable{cursor:pointer;}#my-svg .root .anchor path{fill:#333333!important;stroke-width:0;stroke:#333333;}#my-svg .arrowheadPath{fill:#333333;}#my-svg .edgePath .path{stroke:#333333;stroke-width:2.0px;}#my-svg .flowchart-link{stroke:#333333;fill:none;}#my-svg .edgeLabel{background-color:rgba(232,232,232, 0.8);text-align:center;}#my-svg .edgeLabel p{background-color:rgba(232,232,232, 0.8);}#my-svg .edgeLabel rect{opacity:0.5;background-color:rgba(232,232,232, 0.8);fill:rgba(232,232,232, 0.8);}#my-svg .labelBkg{background-color:rgba(232, 232, 232, 0.5);}#my-svg .cluster rect{fill:#ffffde;stroke:#aaaa33;stroke-width:1px;}#my-svg .cluster text{fill:#333;}#my-svg .cluster span{color:#333;}#my-svg div.mermaidTooltip{position:absolute;text-align:center;max-width:200px;padding:2px;font-family:"trebuchet ms",verdana,arial,sans-serif;font-size:12px;background:hsl(80, 100%, 96.2745098039%);border:1px solid #aaaa33;border-radius:2px;pointer-events:none;z-index:100;}#my-svg .flowchartTitleText{text-anchor:middle;font-size:18px;fill:#333;}#my-svg rect.text{fill:none;stroke-width:0;}#my-svg .icon-shape,#my-svg .image-shape{background-color:rgba(232,232,232, 0.8);text-align:center;}#my-svg .icon-shape p,#my-svg .image-shape p{background-color:rgba(232,232,232, 0.8);padding:2px;}#my-svg .icon-shape rect,#my-svg .image-shape rect{opacity:0.5;background-color:rgba(232,232,232, 0.8);fill:rgba(232,232,232, 0.8);}#my-svg :root{--mermaid-font-family:"trebuchet ms",verdana,arial,sans-serif;}</style><g><marker orient="auto" markerHeight="8" markerWidth="8" markerUnits="userSpaceOnUse" refY="5" refX="5" viewBox="0 0 10 10" class="marker flowchart-v2" id="my-svg_flowchart-v2-pointEnd"><path style="stroke-width: 1; stroke-dasharray: 1, 0;" class="arrowMarkerPath" d="M 0 0 L 10 5 L 0 10 z"/></marker><marker orient="auto" markerHeight="8" markerWidth="8" markerUnits="userSpaceOnUse" refY="5" refX="4.5" viewBox="0 0 10 10" class="marker flowchart-v2" id="my-svg_flowchart-v2-pointStart"><path style="stroke-width: 1; stroke-dasharray: 1, 0;" class="arrowMarkerPath" d="M 0 5 L 10 10 L 10 0 z"/></marker><marker orient="auto" markerHeight="11" markerWidth="11" markerUnits="userSpaceOnUse" refY="5" refX="11" viewBox="0 0 10 10" class="marker flowchart-v2" id="my-svg_flowchart-v2-circleEnd"><circle style="stroke-width: 1; stroke-dasharray: 1, 0;" class="arrowMarkerPath" r="5" cy="5" cx="5"/></marker><marker orient="auto" markerHeight="11" markerWidth="11" markerUnits="userSpaceOnUse" refY="5" refX="-1" viewBox="0 0 10 10" class="marker flowchart-v2" id="my-svg_flowchart-v2-circleStart"><circle style="stroke-width: 1; stroke-dasharray: 1, 0;" class="arrowMarkerPath" r="5" cy="5" cx="5"/></marker><marker orient="auto" markerHeight="11" markerWidth="11" markerUnits="userSpaceOnUse" refY="5.2" refX="12" viewBox="0 0 11 11" class="marker cross flowchart-v2" id="my-svg_flowchart-v2-crossEnd"><path style="stroke-width: 2; stroke-dasharray: 1, 0;" class="arrowMarkerPath" d="M 1,1 l 9,9 M 10,1 l -9,9"/></marker><marker orient="auto" markerHeight="11" markerWidth="11" markerUnits="userSpaceOnUse" refY="5.2" refX="-1" viewBox="0 0 11 11" class="marker cross flowchart-v2" id="my-svg_flowchart-v2-crossStart"><path style="stroke-width: 2; stroke-dasharray: 1, 0;" class="arrowMarkerPath" d="M 1,1 l 9,9 M 10,1 l -9,9"/></marker><g class="root"><g class="clusters"/><g class="edgePaths"><path marker-end="url(#my-svg_flowchart-v2-pointEnd)" style="" class="edge-thickness-normal edge-pattern-solid edge-thickness-normal edge-pattern-solid flowchart-link" id="L_ipums_ipumsdat_0" d="M136.572,136.5L129.879,142.583C123.186,148.667,109.8,160.833,103.181,172.5C96.563,184.167,96.712,195.334,96.786,200.917L96.861,206.5"/><path marker-end="url(#my-svg_flowchart-v2-pointEnd)" style="" class="edge-thickness-normal edge-pattern-solid edge-thickness-normal edge-pattern-solid flowchart-link" id="L_ipums_fullct_0" d="M206.069,121.933L290.658,130.444C375.246,138.955,544.424,155.978,629.013,173.905C713.602,191.833,713.602,210.667,713.602,229.5C713.602,248.333,713.602,267.167,713.679,285.726C713.757,304.286,713.912,322.571,713.99,331.714L714.068,340.857"/><path marker-end="url(#my-svg_flowchart-v2-pointEnd)" style="" class="edge-thickness-normal edge-pattern-solid edge-thickness-normal edge-pattern-solid flowchart-link" id="L_fullct_counties_0" d="M714.102,383.857L714.018,393.5C713.935,403.143,713.768,422.428,724.905,438.009C736.041,453.59,758.481,465.467,769.701,471.405L780.921,477.343"/><path marker-end="url(#my-svg_flowchart-v2-pointEnd)" style="" class="edge-thickness-normal edge-pattern-solid edge-thickness-normal edge-pattern-solid flowchart-link" id="L_ipumsdat_duckdb_0" d="M96.914,249.5L96.831,255.583C96.747,261.667,96.581,273.833,96.497,285.417C96.414,297,96.414,308,96.414,313.5L96.414,319"/><path marker-end="url(#my-svg_flowchart-v2-pointEnd)" style="" class="edge-thickness-normal edge-pattern-solid edge-thickness-normal edge-pattern-solid flowchart-link" id="L_duckdb_panel_0" d="M96.414,404.714L96.414,410.881C96.414,417.047,96.414,429.381,106.14,441.452C115.866,453.522,135.319,465.33,145.045,471.234L154.771,477.139"/><path marker-end="url(#my-svg_flowchart-v2-pointEnd)" style="" class="edge-thickness-normal edge-pattern-solid edge-thickness-normal edge-pattern-solid flowchart-link" id="L_panel_wage_0" d="M179.091,518.214L175.405,524.297C171.718,530.381,164.345,542.547,160.733,554.214C157.122,565.881,157.27,577.048,157.345,582.631L157.419,588.215"/><path marker-end="url(#my-svg_flowchart-v2-pointEnd)" style="" class="edge-thickness-normal edge-pattern-solid edge-thickness-normal edge-pattern-solid flowchart-link" id="L_nhgis_shp_0" d="M951.75,249.5L951.667,255.583C951.583,261.667,951.417,273.833,951.411,289.06C951.405,304.286,951.561,322.571,951.638,331.714L951.716,340.857"/><path marker-end="url(#my-svg_flowchart-v2-pointEnd)" style="" class="edge-thickness-normal edge-pattern-solid edge-thickness-normal edge-pattern-solid flowchart-link" id="L_shp_counties_0" d="M951.75,383.857L951.667,393.5C951.583,403.143,951.417,422.428,937.814,438.052C924.212,453.675,897.173,465.635,883.654,471.616L870.135,477.596"/><path marker-end="url(#my-svg_flowchart-v2-pointEnd)" style="" class="edge-thickness-normal edge-pattern-solid edge-thickness-normal edge-pattern-solid flowchart-link" id="L_nara_wra_0" d="M447.594,47.5L447.51,51.583C447.427,55.667,447.26,63.833,447.247,71.5C447.234,79.167,447.375,86.334,447.445,89.917L447.515,93.501"/><path marker-end="url(#my-svg_flowchart-v2-pointEnd)" style="" class="edge-thickness-normal edge-pattern-solid edge-thickness-normal edge-pattern-solid flowchart-link" id="L_wra_internees_0" d="M439.389,136.5L436.711,142.583C434.033,148.667,428.676,160.833,426.073,172.5C423.469,184.167,423.618,195.334,423.693,200.917L423.767,206.5"/><path marker-end="url(#my-svg_flowchart-v2-pointEnd)" style="" class="edge-thickness-normal edge-pattern-solid edge-thickness-normal edge-pattern-solid flowchart-link" id="L_internees_pr_int_0" d="M391.993,249.5L381.844,255.583C371.696,261.667,351.399,273.833,341.328,289.06C331.257,304.286,331.412,322.571,331.49,331.714L331.568,340.857"/><path marker-end="url(#my-svg_flowchart-v2-pointEnd)" style="" class="edge-thickness-normal edge-pattern-solid edge-thickness-normal edge-pattern-solid flowchart-link" id="L_pr_int_panel_0" d="M331.602,383.857L331.518,393.5C331.435,403.143,331.268,422.428,316.483,438.069C301.698,453.71,272.295,465.707,257.594,471.705L242.892,477.703"/><path marker-end="url(#my-svg_flowchart-v2-pointEnd)" style="" class="edge-thickness-normal edge-pattern-solid edge-thickness-normal edge-pattern-solid flowchart-link" id="L_panel_m2_0" d="M235.069,518.214L249.084,524.297C263.1,530.381,291.132,542.547,311.948,554.447C332.764,566.347,346.364,577.981,353.163,583.797L359.963,589.614"/><path marker-end="url(#my-svg_flowchart-v2-pointEnd)" style="" class="edge-thickness-normal edge-pattern-solid edge-thickness-normal edge-pattern-solid flowchart-link" id="L_internees_icounties_0" d="M455.667,249.5L465.655,255.583C475.643,261.667,495.618,273.833,505.606,292.893C515.594,311.952,515.594,337.905,515.594,363.857C515.594,389.809,515.594,415.762,515.668,434.321C515.743,452.881,515.892,464.048,515.966,469.631L516.04,475.215"/><path marker-end="url(#my-svg_flowchart-v2-pointEnd)" style="" class="edge-thickness-normal edge-pattern-solid edge-thickness-normal edge-pattern-solid flowchart-link" id="L_icounties_c1_0" d="M520.367,518.214L521.636,524.297C522.904,530.381,525.44,542.547,541.782,554.634C558.124,566.721,588.272,578.727,603.345,584.731L618.419,590.734"/><path marker-end="url(#my-svg_flowchart-v2-pointEnd)" style="" class="edge-thickness-normal edge-pattern-solid edge-thickness-normal edge-pattern-solid flowchart-link" id="L_wage_m1_0" d="M157.473,631.214L157.389,635.297C157.306,639.381,157.139,647.547,202.155,657.505C247.171,667.462,337.369,679.21,382.468,685.083L427.567,690.957"/><path marker-end="url(#my-svg_flowchart-v2-pointEnd)" style="" class="edge-thickness-normal edge-pattern-solid edge-thickness-normal edge-pattern-solid flowchart-link" id="L_counties_m1_0" d="M839.683,518.214L845.339,524.297C850.994,530.381,862.306,542.547,867.961,558.047C873.617,573.547,873.617,592.381,873.617,609.214C873.617,626.047,873.617,640.881,824.829,654.245C776.041,667.61,678.465,679.505,629.677,685.453L580.889,691.401"/><path marker-end="url(#my-svg_flowchart-v2-pointEnd)" style="" class="edge-thickness-normal edge-pattern-solid edge-thickness-normal edge-pattern-solid flowchart-link" id="L_counties_m2_0" d="M736.238,512.371L691.559,519.429C646.88,526.486,557.522,540.6,504.434,553.526C451.345,566.451,434.527,578.188,426.117,584.057L417.708,589.925"/><path marker-end="url(#my-svg_flowchart-v2-pointEnd)" style="" class="edge-thickness-normal edge-pattern-solid edge-thickness-normal edge-pattern-solid flowchart-link" id="L_counties_c1_0" d="M826.67,518.214L828.211,524.297C829.752,530.381,832.833,542.547,817.086,554.661C801.34,566.775,766.766,578.836,749.479,584.866L732.191,590.897"/></g><g class="edgeLabels"><g transform="translate(96.4140625, 173)" class="edgeLabel"><g transform="translate(-34.390625, -12)" class="label"><foreignObject height="24" width="68.78125"><div style="display: table-cell; white-space: nowrap; line-height: 1.5; max-width: 200px; text-align: center;" class="labelBkg" xmlns="http://www.w3.org/1999/xhtml"><span class="edgeLabel"><p>download</p></span></div></foreignObject></g></g><g transform="translate(713.6015625, 229.5)" class="edgeLabel"><g transform="translate(-34.390625, -12)" class="label"><foreignObject height="24" width="68.78125"><div style="display: table-cell; white-space: nowrap; line-height: 1.5; max-width: 200px; text-align: center;" class="labelBkg" xmlns="http://www.w3.org/1999/xhtml"><span class="edgeLabel"><p>download</p></span></div></foreignObject></g></g><g transform="translate(713.6015625, 441.7141571044922)" class="edgeLabel"><g transform="translate(-38.6484375, -12)" class="label"><foreignObject height="24" width="77.296875"><div style="display: table-cell; white-space: nowrap; line-height: 1.5; max-width: 200px; text-align: center;" class="labelBkg" xmlns="http://www.w3.org/1999/xhtml"><span class="edgeLabel"><p>summarize</p></span></div></foreignObject></g></g><g transform="translate(96.4140625, 286)" class="edgeLabel"><g transform="translate(-50.734375, -12)" class="label"><foreignObject height="24" width="101.46875"><div style="display: table-cell; white-space: nowrap; line-height: 1.5; max-width: 200px; text-align: center;" class="labelBkg" xmlns="http://www.w3.org/1999/xhtml"><span class="edgeLabel"><p>📄 write-db.R</p></span></div></foreignObject></g></g><g transform="translate(96.4140625, 441.7141571044922)" class="edgeLabel"><g transform="translate(-39.5859375, -12)" class="label"><foreignObject height="24" width="79.171875"><div style="display: table-cell; white-space: nowrap; line-height: 1.5; max-width: 200px; text-align: center;" class="labelBkg" xmlns="http://www.w3.org/1999/xhtml"><span class="edgeLabel"><p>mlp linking</p></span></div></foreignObject></g></g><g transform="translate(156.97265625, 554.7141571044922)" class="edgeLabel"><g transform="translate(-58.453125, -12)" class="label"><foreignObject height="24" width="116.90625"><div style="display: table-cell; white-space: nowrap; line-height: 1.5; max-width: 200px; text-align: center;" class="labelBkg" xmlns="http://www.w3.org/1999/xhtml"><span class="edgeLabel"><p>filter have wage</p></span></div></foreignObject></g></g><g class="edgeLabel"><g transform="translate(0, 0)" class="label"><foreignObject height="0" width="0"><div style="display: table-cell; white-space: nowrap; line-height: 1.5; max-width: 200px; text-align: center;" class="labelBkg" xmlns="http://www.w3.org/1999/xhtml"><span class="edgeLabel"></span></div></foreignObject></g></g><g class="edgeLabel"><g transform="translate(0, 0)" class="label"><foreignObject height="0" width="0"><div style="display: table-cell; white-space: nowrap; line-height: 1.5; max-width: 200px; text-align: center;" class="labelBkg" xmlns="http://www.w3.org/1999/xhtml"><span class="edgeLabel"></span></div></foreignObject></g></g><g class="edgeLabel"><g transform="translate(0, 0)" class="label"><foreignObject height="0" width="0"><div style="display: table-cell; white-space: nowrap; line-height: 1.5; max-width: 200px; text-align: center;" class="labelBkg" xmlns="http://www.w3.org/1999/xhtml"><span class="edgeLabel"></span></div></foreignObject></g></g><g transform="translate(423.3203125, 173)" class="edgeLabel"><g transform="translate(-64.5625, -12)" class="label"><foreignObject height="24" width="129.125"><div style="display: table-cell; white-space: nowrap; line-height: 1.5; max-width: 200px; text-align: center;" class="labelBkg" xmlns="http://www.w3.org/1999/xhtml"><span class="edgeLabel"><p>📄 compile-wra.R</p></span></div></foreignObject></g></g><g class="edgeLabel"><g transform="translate(0, 0)" class="label"><foreignObject height="0" width="0"><div style="display: table-cell; white-space: nowrap; line-height: 1.5; max-width: 200px; text-align: center;" class="labelBkg" xmlns="http://www.w3.org/1999/xhtml"><span class="edgeLabel"></span></div></foreignObject></g></g><g class="edgeLabel"><g transform="translate(0, 0)" class="label"><foreignObject height="0" width="0"><div style="display: table-cell; white-space: nowrap; line-height: 1.5; max-width: 200px; text-align: center;" class="labelBkg" xmlns="http://www.w3.org/1999/xhtml"><span class="edgeLabel"></span></div></foreignObject></g></g><g class="edgeLabel"><g transform="translate(0, 0)" class="label"><foreignObject height="0" width="0"><div style="display: table-cell; white-space: nowrap; line-height: 1.5; max-width: 200px; text-align: center;" class="labelBkg" xmlns="http://www.w3.org/1999/xhtml"><span class="edgeLabel"></span></div></foreignObject></g></g><g class="edgeLabel"><g transform="translate(0, 0)" class="label"><foreignObject height="0" width="0"><div style="display: table-cell; white-space: nowrap; line-height: 1.5; max-width: 200px; text-align: center;" class="labelBkg" xmlns="http://www.w3.org/1999/xhtml"><span class="edgeLabel"></span></div></foreignObject></g></g><g class="edgeLabel"><g transform="translate(0, 0)" class="label"><foreignObject height="0" width="0"><div style="display: table-cell; white-space: nowrap; line-height: 1.5; max-width: 200px; text-align: center;" class="labelBkg" xmlns="http://www.w3.org/1999/xhtml"><span class="edgeLabel"></span></div></foreignObject></g></g><g class="edgeLabel"><g transform="translate(0, 0)" class="label"><foreignObject height="0" width="0"><div style="display: table-cell; white-space: nowrap; line-height: 1.5; max-width: 200px; text-align: center;" class="labelBkg" xmlns="http://www.w3.org/1999/xhtml"><span class="edgeLabel"></span></div></foreignObject></g></g><g class="edgeLabel"><g transform="translate(0, 0)" class="label"><foreignObject height="0" width="0"><div style="display: table-cell; white-space: nowrap; line-height: 1.5; max-width: 200px; text-align: center;" class="labelBkg" xmlns="http://www.w3.org/1999/xhtml"><span class="edgeLabel"></span></div></foreignObject></g></g><g class="edgeLabel"><g transform="translate(0, 0)" class="label"><foreignObject height="0" width="0"><div style="display: table-cell; white-space: nowrap; line-height: 1.5; max-width: 200px; text-align: center;" class="labelBkg" xmlns="http://www.w3.org/1999/xhtml"><span class="edgeLabel"></span></div></foreignObject></g></g><g class="edgeLabel"><g transform="translate(0, 0)" class="label"><foreignObject height="0" width="0"><div style="display: table-cell; white-space: nowrap; line-height: 1.5; max-width: 200px; text-align: center;" class="labelBkg" xmlns="http://www.w3.org/1999/xhtml"><span class="edgeLabel"></span></div></foreignObject></g></g></g><g class="nodes"><g transform="translate(447.09375, 27.5)" id="flowchart-nara-0" class="node default"><polygon transform="translate(-91.578125,19.5)" class="label-container" points="9.75,0 173.40625,0 183.15625,-19.5 173.40625,-39 9.75,-39 0,-19.5"/><g transform="translate(-74.328125, -12)" style="" class="label"><rect/><foreignObject height="24" width="148.65625"><div style="display: table-cell; white-space: nowrap; line-height: 1.5; max-width: 200px; text-align: center;" xmlns="http://www.w3.org/1999/xhtml"><span class="nodeLabel"><p>🌐 National Archives</p></span></div></foreignObject></g></g><g transform="translate(156.97265625, 116.5)" id="flowchart-ipums-2" class="node default"><polygon transform="translate(-51.0625,19.5)" class="label-container" points="9.75,0 92.375,0 102.125,-19.5 92.375,-39 9.75,-39 0,-19.5"/><g transform="translate(-33.8125, -12)" style="" class="label"><rect/><foreignObject height="24" width="67.625"><div style="display: table-cell; white-space: nowrap; line-height: 1.5; max-width: 200px; text-align: center;" xmlns="http://www.w3.org/1999/xhtml"><span class="nodeLabel"><p>🌐 IPUMS</p></span></div></foreignObject></g></g><g transform="translate(951.25, 229.5)" id="flowchart-nhgis-4" class="node default"><polygon transform="translate(-51.484375,19.5)" class="label-container" points="9.75,0 93.21875,0 102.96875,-19.5 93.21875,-39 9.75,-39 0,-19.5"/><g transform="translate(-34.234375, -12)" style="" class="label"><rect/><foreignObject height="24" width="68.46875"><div style="display: table-cell; white-space: nowrap; line-height: 1.5; max-width: 200px; text-align: center;" xmlns="http://www.w3.org/1999/xhtml"><span class="nodeLabel"><p>🌐 NHGIS</p></span></div></foreignObject></g></g><g transform="translate(641.9296875, 27.5)" id="flowchart-jarvis-6" class="node default"><polygon transform="translate(-53.2578125,19.5)" class="label-container" points="9.75,0 96.765625,0 106.515625,-19.5 96.765625,-39 9.75,-39 0,-19.5"/><g transform="translate(-36.0078125, -12)" style="" class="label"><rect/><foreignObject height="24" width="72.015625"><div style="display: table-cell; white-space: nowrap; line-height: 1.5; max-width: 200px; text-align: center;" xmlns="http://www.w3.org/1999/xhtml"><span class="nodeLabel"><p>🌐 JARVIS</p></span></div></foreignObject></g></g><g transform="translate(96.4140625, 229.5)" id="flowchart-ipumsdat-8" class="node default"><polygon transform="translate(-88.4140625,19.5)" class="label-container" points="12,-39 176.828125,-39 176.828125,0 0,0 0,-27 12,-39"/><g transform="translate(-74.9140625, -12)" style="" class="label"><rect/><foreignObject height="24" width="149.828125"><div style="display: table-cell; white-space: nowrap; line-height: 1.5; max-width: 200px; text-align: center;" xmlns="http://www.w3.org/1999/xhtml"><span class="nodeLabel"><p>💾 usa_00123.dat.gz</p></span></div></foreignObject></g></g><g transform="translate(713.6015625, 363.8570785522461)" id="flowchart-fullct-10" class="node default"><polygon transform="translate(-88.4140625,19.5)" class="label-container" points="12,-39 176.828125,-39 176.828125,0 0,0 0,-27 12,-39"/><g transform="translate(-74.9140625, -12)" style="" class="label"><rect/><foreignObject height="24" width="149.828125"><div style="display: table-cell; white-space: nowrap; line-height: 1.5; max-width: 200px; text-align: center;" xmlns="http://www.w3.org/1999/xhtml"><span class="nodeLabel"><p>💾 usa_00126.dat.gz</p></span></div></foreignObject></g></g><g transform="translate(951.25, 363.8570785522461)" id="flowchart-shp-12" class="node default"><polygon transform="translate(-99.234375,19.5)" class="label-container" points="12,-39 198.46875,-39 198.46875,0 0,0 0,-27 12,-39"/><g transform="translate(-85.734375, -12)" style="" class="label"><rect/><foreignObject height="24" width="171.46875"><div style="display: table-cell; white-space: nowrap; line-height: 1.5; max-width: 200px; text-align: center;" xmlns="http://www.w3.org/1999/xhtml"><span class="nodeLabel"><p>💾 US_county_1940.shp</p></span></div></foreignObject></g></g><g transform="translate(447.09375, 116.5)" id="flowchart-wra-14" class="node default"><polygon transform="translate(-99.2265625,19.5)" class="label-container" points="12,-39 198.453125,-39 198.453125,0 0,0 0,-27 12,-39"/><g transform="translate(-85.7265625, -12)" style="" class="label"><rect/><foreignObject height="24" width="171.453125"><div style="display: table-cell; white-space: nowrap; line-height: 1.5; max-width: 200px; text-align: center;" xmlns="http://www.w3.org/1999/xhtml"><span class="nodeLabel"><p>💾 WRA.FORM26.PU.txt</p></span></div></foreignObject></g></g><g transform="translate(96.4140625, 363.8570785522461)" id="flowchart-duckdb-16" class="node default"><path transform="translate(-82.6875, -40.85708136030995)" style="" class="basic label-container" d="M0,14.23805424020663 a82.6875,14.23805424020663 0,0,0 165.375,0 a82.6875,14.23805424020663 0,0,0 -165.375,0 l0,53.23805424020663 a82.6875,14.23805424020663 0,0,0 165.375,0 l0,-53.23805424020663"/><g transform="translate(-75.1875, -2)" style="" class="label"><rect/><foreignObject height="24" width="150.375"><div style="display: table-cell; white-space: nowrap; line-height: 1.5; max-width: 200px; text-align: center;" xmlns="http://www.w3.org/1999/xhtml"><span class="nodeLabel"><p>💽 ipums_db.duckdb</p></span></div></foreignObject></g></g><g transform="translate(189.984375, 498.2141571044922)" id="flowchart-panel-18" class="node default"><polygon transform="translate(-77.375,19.5)" class="label-container" points="12,-39 154.75,-39 154.75,0 0,0 0,-27 12,-39"/><g transform="translate(-63.875, -12)" style="" class="label"><rect/><foreignObject height="24" width="127.75"><div style="display: table-cell; white-space: nowrap; line-height: 1.5; max-width: 200px; text-align: center;" xmlns="http://www.w3.org/1999/xhtml"><span class="nodeLabel"><p>💾 mlp_panel.csv</p></span></div></foreignObject></g></g><g transform="translate(156.97265625, 611.2141571044922)" id="flowchart-wage-20" class="node default"><polygon transform="translate(-100.1015625,19.5)" class="label-container" points="12,-39 200.203125,-39 200.203125,0 0,0 0,-27 12,-39"/><g transform="translate(-86.6015625, -12)" style="" class="label"><rect/><foreignObject height="24" width="173.203125"><div style="display: table-cell; white-space: nowrap; line-height: 1.5; max-width: 200px; text-align: center;" xmlns="http://www.w3.org/1999/xhtml"><span class="nodeLabel"><p>💾 mlp_wage_panel.csv</p></span></div></foreignObject></g></g><g transform="translate(423.3203125, 229.5)" id="flowchart-internees-22" class="node default"><polygon transform="translate(-86.71875,19.5)" class="label-container" points="12,-39 173.4375,-39 173.4375,0 0,0 0,-27 12,-39"/><g transform="translate(-73.21875, -12)" style="" class="label"><rect/><foreignObject height="24" width="146.4375"><div style="display: table-cell; white-space: nowrap; line-height: 1.5; max-width: 200px; text-align: center;" xmlns="http://www.w3.org/1999/xhtml"><span class="nodeLabel"><p>💾 all_internees.csv</p></span></div></foreignObject></g></g><g transform="translate(821.03515625, 498.2141571044922)" id="flowchart-counties-24" class="node default"><polygon transform="translate(-85.296875,19.5)" class="label-container" points="12,-39 170.59375,-39 170.59375,0 0,0 0,-27 12,-39"/><g transform="translate(-71.796875, -12)" style="" class="label"><rect/><foreignObject height="24" width="143.59375"><div style="display: table-cell; white-space: nowrap; line-height: 1.5; max-width: 200px; text-align: center;" xmlns="http://www.w3.org/1999/xhtml"><span class="nodeLabel"><p>💾 county_stats.csv</p></span></div></foreignObject></g></g><g transform="translate(515.59375, 498.2141571044922)" id="flowchart-icounties-26" class="node default"><polygon transform="translate(-104.609375,19.5)" class="label-container" points="12,-39 209.21875,-39 209.21875,0 0,0 0,-27 12,-39"/><g transform="translate(-91.109375, -12)" style="" class="label"><rect/><foreignObject height="24" width="182.21875"><div style="display: table-cell; white-space: nowrap; line-height: 1.5; max-width: 200px; text-align: center;" xmlns="http://www.w3.org/1999/xhtml"><span class="nodeLabel"><p>💾 internee_counties.csv</p></span></div></foreignObject></g></g><g transform="translate(331.1015625, 363.8570785522461)" id="flowchart-pr_int-28" class="node default"><polygon transform="translate(-94,19.5)" class="label-container" points="0,0 188,0 188,-39 0,-39 0,0 -8,0 196,0 196,-39 -8,-39 -8,0"/><g transform="translate(-86.5, -12)" style="" class="label"><rect/><foreignObject height="24" width="173"><div style="display: table-cell; white-space: nowrap; line-height: 1.5; max-width: 200px; text-align: center;" xmlns="http://www.w3.org/1999/xhtml"><span class="nodeLabel"><p>⇥ predict_internment()</p></span></div></foreignObject></g></g><g transform="translate(502.85546875, 700.2141571044922)" id="flowchart-m1-30" class="node default"><polygon transform="translate(-73.5625,19.5)" class="label-container" points="12,-39 147.125,-39 147.125,0 0,0 0,-27 12,-39"/><g transform="translate(-60.0625, -12)" style="" class="label"><rect/><foreignObject height="24" width="120.125"><div style="display: table-cell; white-space: nowrap; line-height: 1.5; max-width: 200px; text-align: center;" xmlns="http://www.w3.org/1999/xhtml"><span class="nodeLabel"><p>💾 dt_wages.csv</p></span></div></foreignObject></g></g><g transform="translate(385.34375, 611.2141571044922)" id="flowchart-m2-32" class="node default"><polygon transform="translate(-60.7109375,19.5)" class="label-container" points="12,-39 121.421875,-39 121.421875,0 0,0 0,-27 12,-39"/><g transform="translate(-47.2109375, -12)" style="" class="label"><rect/><foreignObject height="24" width="94.421875"><div style="display: table-cell; white-space: nowrap; line-height: 1.5; max-width: 200px; text-align: center;" xmlns="http://www.w3.org/1999/xhtml"><span class="nodeLabel"><p>💾 dt_all.csv</p></span></div></foreignObject></g></g><g transform="translate(670.99609375, 611.2141571044922)" id="flowchart-c1-34" class="node default"><polygon transform="translate(-74.9296875,19.5)" class="label-container" points="12,-39 149.859375,-39 149.859375,0 0,0 0,-27 12,-39"/><g transform="translate(-61.4296875, -12)" style="" class="label"><rect/><foreignObject height="24" width="122.859375"><div style="display: table-cell; white-space: nowrap; line-height: 1.5; max-width: 200px; text-align: center;" xmlns="http://www.w3.org/1999/xhtml"><span class="nodeLabel"><p>💾 dt_county.csv</p></span></div></foreignObject></g></g></g></g></g></svg>